<?xml version="1.0" standalone="no"?>
<!DOCTYPE svg PUBLIC "-//W3C//DTD SVG 20010904//EN"
 "http://www.w3.org/TR/2001/REC-SVG-20010904/DTD/svg10.dtd">
<svg version="1.0" xmlns="http://www.w3.org/2000/svg"
 width="420.000000pt" height="420.000000pt" viewBox="0 0 420.000000 420.000000"
 preserveAspectRatio="xMidYMid meet">
<metadata>
Created by potrace 1.11, written by Peter Selinger 2001-2013
</metadata>
<g transform="translate(0.000000,420.000000) scale(0.100000,-0.100000)"
fill="#000000" stroke="none">
<path d="M1887 3293 c-10 -16 -707 -1815 -707 -1824 0 -15 377 -12 387 4 4 6
40 100 79 207 l71 195 368 0 368 0 80 -207 80 -208 198 0 c110 0 199 3 199 8
0 4 -164 417 -364 917 l-364 910 -195 3 c-108 1 -198 -1 -200 -5z m318 -759
c66 -179 122 -329 123 -335 2 -5 -95 -9 -246 -9 l-249 0 121 335 c67 184 123
335 126 335 3 0 59 -147 125 -326z"/>
<path d="M3651 1994 c0 -11 3 -14 6 -6 3 7 2 16 -1 19 -3 4 -6 -2 -5 -13z"/>
<path d="M551 1954 c0 -11 3 -14 6 -6 3 7 2 16 -1 19 -3 4 -6 -2 -5 -13z"/>
<path d="M3641 1954 c0 -11 3 -14 6 -6 3 7 2 16 -1 19 -3 4 -6 -2 -5 -13z"/>
<path d="M560 1924 c-1 -42 95 -270 165 -389 308 -523 901 -829 1508 -776 642
55 1174 473 1383 1085 35 101 28 105 -10 6 -204 -529 -665 -885 -1271 -981
-103 -16 -367 -16 -470 0 -605 96 -1068 453 -1271 981 -18 47 -33 80 -34 74z"/>
</g>
</svg>
